# xmcd
#
# Track frame offsets:
#	150
#	17772
#	37895
#	61276
#	76272
#	90888
#	108887
#	130686
#	140238
#	157998
#	175414
#	197901
#	209404
#	230538
#	249415
#
# Disc length: 3552 seconds
#
# Revision: 1
# Processed by: cddbd v1.5.1PL2 Copyright (c) Steve Scherf et al.
# Submitted via: audiograbber 1.83.01
#
DISCID=bf0dde0f
DTITLE=Audrey Smits - Audromia
DYEAR=2005
DGENRE=Country
TTITLE0=I'm in love 
TTITLE1=Angels from Montgomery
TTITLE2=All I wanted
TTITLE3=Chill the Beers
TTITLE4=Same Moon
TTITLE5=Loving Whiskey
TTITLE6=In the Arms of an Angel
TTITLE7=Butterfly Kisses 
TTITLE8=Is it over yet
TTITLE9=Break me
TTITLE10=You
TTITLE11=Three Cigarettes in an Ashtray
TTITLE12=I can't make you love me
TTITLE13=Stronger
TTITLE14=Beast of Burden 
EXTD=http://www.audreysmits.com
EXTT0=
EXTT1=
EXTT2=
EXTT3=
EXTT4=
EXTT5=
EXTT6=
EXTT7=
EXTT8=
EXTT9=
EXTT10=
EXTT11=
EXTT12=
EXTT13=
EXTT14=
PLAYORDER=
